<svg width="24" height="24" viewBox="0 0 24 24" fill="none" xmlns="http://www.w3.org/2000/svg">
<path fill-rule="evenodd" clip-rule="evenodd" d="M11.75 6.406C10.27 6.406 10.122 6.563 9.35604 6.563C8.71804 6.563 6.80204 5 5.84504 5C4.88804 5 3.77004 5.563 3.77004 7.188V9.063C3.77204 9.555 3.95004 11.063 4.65004 10.66C3.82304 11.638 3.74004 12.779 3.75104 13.883C3.52804 13.947 3.30104 14.02 3.08004 14.095C2.39604 14.329 1.67004 14.627 1.34304 14.839C1.17595 14.9469 1.05859 15.1168 1.01677 15.3113C0.974945 15.5058 1.01209 15.7089 1.12004 15.876C1.22798 16.0431 1.39788 16.1604 1.59235 16.2023C1.78683 16.2441 1.98995 16.2069 2.15704 16.099C2.31304 15.998 2.87804 15.749 3.56504 15.514L3.79304 15.439C3.83904 15.872 3.95404 16.269 4.12504 16.629L4.10104 16.642C3.69104 16.858 3.31104 17.107 3.06904 17.265L2.95604 17.339C2.78895 17.4469 2.67159 17.6168 2.62977 17.8113C2.58795 18.0058 2.62509 18.2089 2.73304 18.376C2.84098 18.5431 3.01088 18.6604 3.20535 18.7023C3.39983 18.7441 3.60295 18.7069 3.77004 18.599L3.90104 18.513C4.14604 18.353 4.46004 18.148 4.80204 17.968C4.88204 17.9253 4.95904 17.8867 5.03304 17.852C6.76304 19.475 9.87004 20 11.75 20C13.63 20 16.737 19.475 18.467 17.852C18.5404 17.8867 18.6174 17.9253 18.698 17.968C19.04 18.148 19.354 18.353 19.599 18.513L19.73 18.599C19.8971 18.7069 20.1002 18.7441 20.2947 18.7023C20.4892 18.6604 20.6591 18.5431 20.767 18.376C20.875 18.2089 20.9121 18.0058 20.8703 17.8113C20.8285 17.6168 20.7111 17.4469 20.544 17.339L20.431 17.265C20.0969 17.0415 19.7525 16.8336 19.399 16.642L19.375 16.629C19.546 16.269 19.661 15.872 19.707 15.439L19.935 15.514C20.622 15.749 21.187 15.998 21.344 16.099C21.511 16.2009 21.7113 16.2335 21.902 16.1898C22.0927 16.1462 22.2588 16.0298 22.3648 15.8654C22.4709 15.701 22.5086 15.5017 22.4697 15.3099C22.4309 15.1182 22.3187 14.9492 22.157 14.839C21.83 14.627 21.104 14.329 20.421 14.095C20.1986 14.0191 19.9746 13.9481 19.749 13.882C19.761 12.778 19.677 11.638 18.849 10.66C19.549 11.063 19.729 9.555 19.73 9.062V7.188C19.73 5.563 18.613 5 17.655 5C16.698 5 14.782 6.563 14.145 6.563C13.378 6.563 13.23 6.406 11.75 6.406ZM11.075 15.6C11.277 15.531 11.516 15.5 11.75 15.5C11.984 15.5 12.223 15.531 12.426 15.6C12.526 15.634 12.646 15.688 12.754 15.774C12.828 15.8299 12.8885 15.9017 12.9311 15.9841C12.9737 16.0664 12.9972 16.1573 13 16.25C13 16.48 12.861 16.64 12.754 16.726C12.647 16.812 12.525 16.866 12.426 16.9C12.223 16.969 11.984 17 11.75 17C11.516 17 11.277 16.969 11.075 16.9C10.9563 16.8611 10.845 16.8023 10.746 16.726C10.672 16.6701 10.6115 16.5983 10.569 16.5159C10.5264 16.4336 10.5028 16.3427 10.5 16.25C10.5 16.02 10.639 15.86 10.746 15.774C10.853 15.688 10.976 15.634 11.075 15.6ZM13.92 12.5C14.057 12.272 14.326 12 14.73 12C15.134 12 15.404 12.272 15.54 12.5C15.682 12.739 15.75 13.027 15.75 13.313C15.75 13.599 15.682 13.886 15.54 14.124C15.404 14.353 15.134 14.625 14.73 14.625C14.326 14.625 14.057 14.353 13.92 14.125C13.7791 13.8778 13.7066 13.5975 13.71 13.313C13.71 13.027 13.778 12.739 13.92 12.501M7.96004 12.501C8.09704 12.273 8.36604 12.001 8.77004 12.001C9.17404 12.001 9.44404 12.273 9.58004 12.501C9.72204 12.74 9.79004 13.028 9.79004 13.314C9.79004 13.6 9.72204 13.887 9.58004 14.125C9.44404 14.354 9.17404 14.626 8.77004 14.626C8.36604 14.626 8.09704 14.354 7.96004 14.126C7.81908 13.8788 7.74659 13.5985 7.75004 13.314C7.75004 13.028 7.81804 12.739 7.96004 12.501Z" fill="#764DC7"/>
</svg>
